<?xml version="1.0" encoding="UTF-8" standalone="no"?>
<!DOCTYPE svg PUBLIC "-//W3C//DTD SVG 1.1//EN" "http://www.w3.org/Graphics/SVG/1.1/DTD/svg11.dtd">
<svg width="240.00" height="240.00" viewBox="0.00 0.00 1000.00 1000.00" xmlns="http://www.w3.org/2000/svg" xmlns:xlink="http://www.w3.org/1999/xlink">
<g stroke-linecap="round" id="Layer_2">
<path d="M842.25,293.12 C853.85,313.11 863.73,332.13 869.36,345.36 C871.94,351.44 878.32,369.74 880.44,376.95 C884.24,390.65 892.07,422.56 894.96,438.26 C896.28,446.24 898.09,459.02 899.07,470.01 C899.62,477.90 900.17,493.61 900.19,501.42 C900.05,509.20 899.38,524.68 898.84,532.37 C897.85,543.78 896.90,551.63 895.11,562.97 C892.42,578.31 885.09,608.95 880.56,623.81 C877.16,634.28 872.77,645.65 869.82,652.83 C863.64,667.16 849.44,695.25 841.61,708.63 C837.62,715.24 828.91,728.03 824.37,734.35 C815.02,746.89 794.75,770.90 784.06,782.08 C780.96,785.27 767.14,797.96 761.25,803.07 C749.22,813.14 720.69,834.17 711.03,840.15 C701.37,846.13 669.82,862.28 655.44,868.55 C648.25,871.55 630.72,878.26 626.48,879.61 C611.71,884.19 581.17,891.63 565.78,894.40 C558.10,895.64 542.77,897.74 535.07,898.36 C519.61,899.40 488.13,899.58 472.56,898.71 C464.81,898.15 452.67,897.01 441.79,895.38 C426.47,892.81 395.77,885.70 380.85,881.28 C369.64,877.73 362.62,875.21 351.71,870.84 C337.37,864.78 309.13,850.78 295.66,843.03 C286.21,837.38 276.10,830.55 269.76,826.06 C257.17,816.84 232.94,796.70 221.63,786.07 C216.07,780.70 205.55,769.34 200.39,763.50 C190.24,751.58 171.34,726.43 162.81,713.50 C160.39,709.77 151.08,693.44 147.41,686.56 C140.26,672.57 126.09,640.04 122.39,629.28 C118.71,618.51 109.96,584.13 107.03,568.70 C105.70,561.01 103.04,542.42 102.67,537.98 C101.47,522.54 100.99,491.09 101.70,475.46 C102.19,467.69 103.54,452.27 104.64,444.62 C107.05,429.30 113.84,398.55 118.13,383.55 C120.40,376.12 124.19,364.54 128.19,354.28 C134.09,339.91 147.81,311.56 155.43,297.99 C161.36,287.86 165.37,281.56 172.05,271.90 C181.13,259.27 201.02,234.86 211.55,223.44 C219.16,215.49 228.05,207.16 233.82,201.97 C245.60,191.76 270.58,172.62 283.44,163.97 C289.90,159.75 303.31,152.02 310.14,148.30 C324.00,141.07 352.69,128.25 367.17,122.82 C371.35,121.29 389.32,115.87 396.84,113.82 C412.05,109.98 446.79,103.44 458.19,102.23 C469.54,101.03 504.98,100.12 520.46,100.71 C528.27,101.15 546.08,102.68 551.49,103.38 C566.70,105.53 597.80,111.84 612.30,115.93 C619.84,118.25 634.93,123.44 642.84,126.66 C661.95,134.81 703.72,156.85 706.73,158.43" fill="none" stroke="rgb(0, 0, 0)" stroke-width="20.00" stroke-opacity="1.00" stroke-linejoin="round"/>
<path d="M747.25,114.93 C753.31,111.16 769.46,104.27 776.36,102.50 C783.27,100.77 800.72,99.16 807.82,99.60 C814.91,100.07 831.96,103.91 838.55,106.51 C845.12,109.14 860.10,118.05 865.54,122.56 C870.97,127.09 882.41,140.20 886.17,146.17 C889.90,152.17 896.68,168.18 898.39,175.04 C900.07,181.90 901.53,199.27 901.02,206.34 C900.49,213.40 896.48,230.41 893.81,237.00 C891.11,243.57 882.03,258.56 877.45,264.02 C872.85,269.46 859.58,280.97 853.55,284.76 C847.49,288.54 831.35,295.43 824.44,297.20 C817.53,298.93 800.08,300.54 792.99,300.10 C785.90,299.63 768.84,295.79 762.25,293.19 C755.68,290.56 740.70,281.65 735.26,277.14 C729.84,272.61 718.40,259.50 714.64,253.53 C710.90,247.53 704.12,231.52 702.41,224.66 C700.73,217.80 699.27,200.43 699.78,193.36 C700.32,186.30 704.32,169.29 706.99,162.70 C709.70,156.13 718.77,141.14 723.35,135.68 C727.96,130.24 741.22,118.73 747.25,114.93 Z" fill="none" stroke="rgb(0, 0, 0)" stroke-width="20.00" stroke-opacity="1.00" stroke-linejoin="round"/>
</g>
</svg>
